<svg width="1000" height="1000" viewBox="0 0 1000 1000" fill="none" xmlns="http://www.w3.org/2000/svg">
<circle cx="500" cy="500" r="500" fill="black"/>
<path d="M500 654.519C500 674.667 483.52 691.352 463.739 687.527C426.577 680.341 392.094 662.208 364.943 635.057C329.123 599.238 309 550.656 309 500C309 449.344 329.123 400.762 364.943 364.943C392.094 337.792 426.577 319.659 463.739 312.473C483.52 308.648 500 325.333 500 345.481V345.481C500 365.629 483.289 381.426 464.096 387.555C446.32 393.231 429.974 403.095 416.535 416.535C394.398 438.671 381.962 468.694 381.962 500C381.962 531.306 394.398 561.329 416.535 583.465C429.974 596.905 446.32 606.769 464.096 612.445C483.289 618.574 500 634.371 500 654.519V654.519Z" fill="white"/>
<path d="M585.127 371.045C596.227 354.23 619.172 349.384 633.573 363.474C653.367 382.841 668.821 406.387 678.701 432.568C692.899 470.195 694.858 511.344 684.299 550.15C673.739 588.956 651.2 623.438 619.893 648.683C598.11 666.248 572.856 678.717 545.978 685.384C526.423 690.234 509.097 674.43 508.048 654.309V654.309C506.998 634.189 522.863 617.542 541.711 610.423C553.349 606.026 564.29 599.791 574.094 591.886C593.442 576.285 607.371 554.975 613.897 530.993C620.422 507.01 619.212 481.58 610.437 458.327C605.991 446.544 599.717 435.625 591.912 425.938C579.27 410.249 574.027 387.859 585.127 371.045V371.045Z" fill="white"/>
<circle cx="544.5" cy="352.5" r="36.5" fill="white"/>
</svg>
